Coordinates
version=1
nRows=17
nColumns=40
inDegrees=yes

Units are S.I. units (second, meters, Newtons, ...)
Angles are in degrees.

endheader
time	pelvis_tilt	pelvis_list	pelvis_rotation	pelvis_tx	pelvis_ty	pelvis_tz	hip_flexion_r	hip_adduction_r	hip_rotation_r	knee_angle_r	knee_angle_r_beta	ankle_angle_r	subtalar_angle_r	mtp_angle_r	hip_flexion_l	hip_adduction_l	hip_rotation_l	knee_angle_l	knee_angle_l_beta	ankle_angle_l	subtalar_angle_l	mtp_angle_l	lumbar_extension	lumbar_bending	lumbar_rotation	arm_flex_r	arm_add_r	arm_rot_r	elbow_flex_r	pro_sup_r	wrist_flex_r	wrist_dev_r	arm_flex_l	arm_add_l	arm_rot_l	elbow_flex_l	pro_sup_l	wrist_flex_l	wrist_dev_l
      9.11000000	     -4.71531365	     -4.86186383	      4.21469380	      0.92457855	      0.93601063	      0.40814010	     36.57970918	     -6.49164414	     -8.37317788	     70.12103205	     70.12103205	      2.97602752	    -14.11680273	      0.04553180	     14.54854868	     -4.20470853	    -11.53234294	     15.62150861	     15.62150861	      9.61534618	     -3.97769615	     -7.78330737	     -9.61330572	      2.68860473	      1.42493129	     -2.61486680	    -13.44020681	     -5.26505927	     40.22323015	     42.58837213	      0.00000000	      0.00000000	     15.30272900	    -13.90833156	     -0.85134228	     41.15296846	     42.53844546	      0.00000000	      0.00000000
      9.12221429	     -4.56138732	     -4.86565443	      4.03260596	      0.92400983	      0.93624932	      0.40726160	     37.20459943	     -6.33843088	     -8.25212178	     67.98894690	     67.98894690	      2.76893698	    -13.88728083	     -0.03239726	     13.77201727	     -4.17230613	    -11.50928622	     15.47191526	     15.47191526	      9.94607644	     -4.20910135	     -7.82464766	     -9.90220119	      2.84339541	      2.09589720	     -4.11365172	    -13.23841802	     -5.09535570	     38.56443181	     42.68458114	      0.00000000	      0.00000000	     16.55538773	    -13.64074206	     -1.14693376	     42.77129020	     42.64559960	      0.00000000	      0.00000000
      9.13442857	     -4.43202118	     -4.85797889	      3.83377159	      0.92349696	      0.93648139	      0.40644322	     37.68303057	     -6.17180288	     -8.17377896	     65.59956556	     65.59956556	      2.48521595	    -13.63670505	     -0.07499444	     12.98939879	     -4.11495528	    -11.48081979	     15.25675633	     15.25675633	     10.21578459	     -4.45933983	     -7.82422998	    -10.21513835	      2.92301332	      2.56087408	     -5.33880212	    -12.97037686	     -4.98083201	     36.65386975	     42.79008703	      0.00000000	      0.00000000	     17.57629287	    -13.39568766	     -1.45617912	     44.53982420	     42.74414144	      0.00000000	      0.00000000
      9.14664286	     -4.35062665	     -4.66578532	      3.57145242	      0.92313205	      0.93667085	      0.40555448	     38.03837251	     -6.14187816	     -7.97310537	     62.93214850	     62.93214850	      1.74421498	    -13.53411687	     -1.37126980	     12.12801711	     -3.77566100	    -11.29405117	     14.80894893	     14.80894893	     10.25376930	     -5.21638600	     -7.83290494	    -10.42626289	      2.75664052	      1.75119374	     -4.16731974	    -12.17322880	     -5.52888879	     30.61310530	     43.31883661	      0.00000000	      0.00000000	     16.78747352	    -14.00549227	     -2.90269541	     49.08594035	     43.17408888	      0.00000000	      0.00000000
      9.15885714	     -4.17223488	     -4.48631818	      3.22041367	      0.92307402	      0.93699172	      0.40475657	     38.15004363	     -6.01976499	     -7.76638365	     60.09047061	     60.09047061	      1.51272948	    -13.08903879	     -1.06834817	     11.13426839	     -3.52864126	    -11.49912107	     14.39608203	     14.39608203	     10.49988276	     -5.33837507	     -7.74975406	    -10.73509167	      2.70878576	      2.40735066	     -5.43745218	    -12.01616484	     -5.49228742	     29.24210422	     43.41003732	      0.00000000	      0.00000000	     17.83946031	    -13.69151425	     -3.30568097	     50.58838348	     43.28425444	      0.00000000	      0.00000000
      9.17107143	     -4.03309982	     -4.14350519	      2.78719378	      0.92323271	      0.93732044	      0.40389962	     38.14232824	     -6.05790315	     -7.56140951	     56.98408599	     56.98408599	      1.13191478	    -12.48903004	     -1.24366991	     10.00585502	     -2.98727886	    -11.41702868	     13.65813336	     13.65813336	     10.56094279	     -6.07006081	     -7.32310784	    -11.00579986	      2.41409993	      2.13503728	     -5.22168636	    -11.61803041	     -6.13019731	     25.68977441	     43.83718792	      0.00000000	      0.00000000	     17.47498908	    -13.81415783	     -4.74408611	     54.20773924	     43.68537402	      0.00000000	      0.00000000
      9.18328571	     -3.86006971	     -3.77630557	      2.24509566	      0.92375968	      0.93771234	      0.40316391	     37.92908441	     -6.04009861	     -7.36750841	     53.61637918	     53.61637918	      0.96153447	    -11.66950352	     -0.90087912	      8.78399048	     -2.48926579	    -11.82790524	     12.89769720	     12.89769720	     10.73077362	     -6.04619588	     -7.08395411	    -11.26898832	      2.14797959	      2.81293679	     -6.34508324	    -11.58168227	     -6.18520046	     24.67184617	     43.91748924	      0.00000000	      0.00000000	     18.25996054	    -13.48355087	     -5.06797609	     55.65016695	     43.77597754	      0.00000000	      0.00000000
      9.19550000	     -3.65657257	     -3.23710493	      1.58612226	      0.92464988	      0.93814650	      0.40246992	     37.54034432	     -6.15812332	     -7.18698638	     50.01799946	     50.01799946	      0.81105992	    -10.54815938	     -0.73015164	      7.34966598	     -1.72887625	    -12.22055904	     11.84735700	     11.84735700	     10.84497698	     -6.17623406	     -6.52464879	    -11.52838492	      1.68477097	      3.48119503	     -7.31097321	    -11.55767104	     -6.33561961	     23.60405667	     44.01851980	      0.00000000	      0.00000000	     18.72643316	    -13.17726084	     -5.50486519	     57.69128795	     43.88543868	      0.00000000	      0.00000000
      9.20771429	     -3.47758439	     -2.68185360	      0.86756781	      0.92582498	      0.93856082	      0.40183417	     36.97450715	     -6.27093233	     -7.16455554	     46.09887051	     46.09887051	      0.65879390	     -9.13480990	     -0.65876233	      5.87741770	     -0.90938597	    -12.62215130	     10.68147491	     10.68147491	     10.93925034	     -6.28345700	     -5.78475419	    -11.72853669	      1.19779351	      4.01661354	     -8.13689192	    -11.59658076	     -6.54917897	     22.74045602	     44.11600925	      0.00000000	      0.00000000	     18.88961342	    -12.97138937	     -5.99003606	     59.89297161	     43.99492652	      0.00000000	      0.00000000
      9.21992857	     -3.36519100	     -1.95082226	      0.10857702	      0.92724909	      0.93881792	      0.40120826	     36.30503285	     -6.52640896	     -7.21140001	     41.87800294	     41.87800294	      0.10838714	     -7.61242462	     -1.88058979	      4.41582071	      0.19819933	    -12.65219883	      9.42158388	      9.42158388	     11.37646787	     -6.80155606	     -3.65741094	    -11.84961536	      0.45793360	      3.59455629	     -8.14671145	    -11.58811185	     -7.55072034	     21.64360538	     44.44366394	      0.00000000	      0.00000000	     17.58267403	    -13.24444298	     -7.55881563	     64.54481567	     44.34328029	      0.00000000	      0.00000000
      9.23214286	     -3.18333714	     -1.29426715	     -0.69263668	      0.92902298	      0.93908728	      0.40082763	     35.34583103	     -6.65876882	     -7.48978521	     37.39668212	     37.39668212	     -0.34267703	     -5.70678306	     -2.89837022	      2.92028443	      1.14000191	    -13.36288715	      8.28906988	      8.28906988	     12.08027732	     -6.15267129	     -1.71652249	    -11.95205171	     -0.18916349	      3.91549265	     -8.58917584	    -11.63566208	     -8.62070940	     20.77607531	     44.87441054	      0.00000000	      0.00000000	     17.31711302	    -12.98390852	     -8.60363282	     67.11852781	     44.75199168	      0.00000000	      0.00000000
      9.24435714	     -3.02251452	     -0.61430104	     -1.48928245	      0.93102224	      0.93913910	      0.40056052	     34.31152776	     -6.83008962	     -8.05448367	     32.92945574	     32.92945574	     -0.35738736	     -3.13229270	     -2.70218119	      1.39270105	      2.16286682	    -13.93292308	      7.00670007	      7.00670007	     12.46274814	     -5.73149634	     -0.34029486	    -11.98039081	     -0.86540564	      4.47984553	     -9.46131070	    -11.80985370	     -9.00829398	     20.80186756	     44.99452436	      0.00000000	      0.00000000	     17.19118868	    -12.77646407	     -8.87589363	     69.39475430	     44.89991675	      0.00000000	      0.00000000
      9.25657143	     -2.79033718	      0.01617667	     -2.23905601	      0.93325101	      0.93912154	      0.40046537	     33.04585494	     -6.91287473	     -8.83223230	     28.42662041	     28.42662041	     -0.30935562	     -0.36289003	     -2.21995622	     -0.15446537	      3.12501309	    -14.59261675	      5.83755744	      5.83755744	     12.97695894	     -5.09294218	      1.11286641	    -12.03699372	     -1.52536061	      4.97997837	    -10.26570377	    -12.00316311	     -9.28233631	     20.94279826	     45.06830981	      0.00000000	      0.00000000	     17.05468197	    -12.56565510	     -9.18964046	     71.57311729	     45.01943583	      0.00000000	      0.00000000
      9.26878571	     -2.60670554	      0.65751759	     -2.94175126	      0.93567827	      0.93883910	      0.40050819	     31.75938423	     -7.00974157	     -9.87917167	     24.09236831	     24.09236831	     -0.17079868	      2.80557184	     -1.38747632	     -1.56189602	      4.08425408	    -15.27056854	      4.86470614	      4.86470614	     14.00427161	     -4.15354572	      3.61433511	    -12.01003755	     -2.19723713	      5.21823089	    -10.97532641	    -12.17318643	     -9.64050737	     21.52086229	     45.14750467	      0.00000000	      0.00000000	     16.50512971	    -12.50271104	     -9.64699906	     74.33928409	     45.18180181	      0.00000000	      0.00000000
      9.28100000	     -2.31329745	      1.12992892	     -3.57025493	      0.93820965	      0.93851435	      0.40086742	     30.22923190	     -6.81186506	    -10.79524266	     19.89083265	     19.89083265	     -0.05789107	      5.33810442	     -0.15771068	     -2.99388892	      4.83288917	    -15.88468528	      4.05244117	      4.05244117	     14.64284386	     -3.44825392	      4.88870903	    -12.06360062	     -2.71241786	      5.62280897	    -11.58026827	    -12.42680266	     -9.78004870	     21.72096941	     45.18137701	      0.00000000	      0.00000000	     16.35536854	    -12.35851942	     -9.85586595	     75.96956430	     45.26390615	      0.00000000	      0.00000000
      9.29321429	     -2.16565377	      1.78108067	     -4.12186693	      0.94081179	      0.93792254	      0.40122648	     29.10572134	     -6.92805056	    -12.01349469	     16.58699324	     16.58699324	      0.84552763	      8.42603578	      3.06589744	     -4.09329373	      5.70091348	    -16.84929710	      3.67596994	      3.67596994	     17.03630166	     -1.77140553	     10.25863540	    -11.94977864	     -3.45984806	      5.39145314	    -12.10231347	    -12.58768923	    -10.00761907	     23.02456925	     45.28116682	      0.00000000	      0.00000000	     15.34621716	    -12.48877874	    -10.61231461	     79.11795608	     45.56048235	      0.00000000	      0.00000000
      9.30542857	     -1.97008572	      2.23201243	     -4.60509166	      0.94342941	      0.93699303	      0.40189354	     27.86836081	     -6.76866436	    -12.97335166	     13.56736482	     13.56736482	      0.98901661	     10.55683766	      4.21961457	     -5.32835713	      6.39374977	    -17.30846994	      2.99860800	      2.99860800	     17.50211909	     -1.17559470	     10.95810904	    -11.81496087	     -3.97496296	      5.80267795	    -12.54888795	    -12.69115983	     -9.99738114	     23.08231978	     45.29927685	      0.00000000	      0.00000000	     15.37412280	    -12.28382726	    -10.59092335	     80.24977062	     45.61630991	      0.00000000	      0.00000000
